<svg width="71" height="71" viewBox="0 0 71 71" fill="none" xmlns="http://www.w3.org/2000/svg">
<path d="M21.3 11.8306V16.5606H66.2667V25.9236L61.0156 42.5753H19.8108L13.8941 0H0V4.72994H9.77256L15.6892 47.3052H64.4869L71 26.6512V11.8306H21.3ZM23.8122 52.0802C21.3024 52.0831 18.8962 53.0807 17.1214 54.8541C15.3467 56.6276 14.3484 59.0321 14.3455 61.5401C14.3455 64.049 15.3429 66.4552 17.1183 68.2293C18.8936 70.0033 21.3015 71 23.8122 71C26.3229 71 28.7308 70.0033 30.5062 68.2293C32.2815 66.4552 33.2789 64.049 33.2789 61.5401C33.2761 59.0321 32.2778 56.6275 30.503 54.8541C28.7283 53.0806 26.3221 52.083 23.8122 52.0802ZM23.8122 66.2701C22.876 66.2701 21.9609 65.9927 21.1825 65.4729C20.4041 64.9532 19.7974 64.2145 19.4392 63.3502C19.0809 62.4859 18.9872 61.5349 19.1698 60.6173C19.3525 59.6998 19.8033 58.857 20.4652 58.1955C21.1272 57.534 21.9706 57.0836 22.8888 56.9011C23.807 56.7185 24.7587 56.8122 25.6236 57.1702C26.4885 57.5282 27.2277 58.1345 27.7478 58.9123C28.2679 59.6901 28.5455 60.6046 28.5455 61.5401C28.5441 62.7941 28.0449 63.9963 27.1575 64.883C26.2702 65.7698 25.0671 66.2686 23.8122 66.2701ZM56.9455 52.0802C54.4357 52.0831 52.0295 53.0807 50.2548 54.8541C48.48 56.6276 47.4817 59.0321 47.4789 61.5401C47.4789 64.049 48.4763 66.4552 50.2516 68.2293C52.0269 70.0033 54.4348 71 56.9455 71C59.4563 71 61.8641 70.0033 63.6395 68.2293C65.4148 66.4552 66.4122 64.049 66.4122 61.5401C66.4094 59.0321 65.4111 56.6275 63.6364 54.8541C61.8616 53.0806 59.4554 52.083 56.9455 52.0802ZM56.9455 66.2701C56.0094 66.2701 55.0942 65.9927 54.3158 65.4729C53.5375 64.9532 52.9308 64.2145 52.5725 63.3502C52.2143 62.4859 52.1205 61.5349 52.3032 60.6173C52.4858 59.6998 52.9366 58.857 53.5986 58.1955C54.2605 57.534 55.1039 57.0836 56.0221 56.9011C56.9403 56.7185 57.892 56.8122 58.7569 57.1702C59.6218 57.5282 60.3611 58.1345 60.8812 58.9123C61.4013 59.6901 61.6789 60.6046 61.6789 61.5401C61.6774 62.7941 61.1782 63.9963 60.2909 64.883C59.4035 65.7698 58.2005 66.2686 56.9455 66.2701Z" fill="white"/>
</svg>
