<svg width="52" height="52" viewBox="0 0 52 52" fill="none" xmlns="http://www.w3.org/2000/svg">
<path d="M20.6111 12H8.94444C8.42875 12 7.93417 12.2049 7.56951 12.5695C7.20486 12.9342 7 13.4287 7 13.9444V25.6111C7 26.1268 7.20486 26.6214 7.56951 26.986C7.93417 27.3507 8.42875 27.5556 8.94444 27.5556H20.6111C21.1268 27.5556 21.6214 27.3507 21.986 26.986C22.3507 26.6214 22.5556 26.1268 22.5556 25.6111V13.9444C22.5556 13.4287 22.3507 12.9342 21.986 12.5695C21.6214 12.2049 21.1268 12 20.6111 12ZM18.6667 23.6667H10.8889V15.8889H18.6667V23.6667ZM40.0556 31.4444H28.3889C27.8732 31.4444 27.3786 31.6493 27.014 32.014C26.6493 32.3786 26.4444 32.8732 26.4444 33.3889V45.0556C26.4444 45.5713 26.6493 46.0658 27.014 46.4305C27.3786 46.7951 27.8732 47 28.3889 47H40.0556C40.5713 47 41.0658 46.7951 41.4305 46.4305C41.7951 46.0658 42 45.5713 42 45.0556V33.3889C42 32.8732 41.7951 32.3786 41.4305 32.014C41.0658 31.6493 40.5713 31.4444 40.0556 31.4444ZM38.1111 43.1111H30.3333V35.3333H38.1111V43.1111ZM34.2222 12C29.9328 12 26.4444 15.4883 26.4444 19.7778C26.4444 24.0672 29.9328 27.5556 34.2222 27.5556C38.5117 27.5556 42 24.0672 42 19.7778C42 15.4883 38.5117 12 34.2222 12ZM34.2222 23.6667C32.0775 23.6667 30.3333 21.9225 30.3333 19.7778C30.3333 17.6331 32.0775 15.8889 34.2222 15.8889C36.3669 15.8889 38.1111 17.6331 38.1111 19.7778C38.1111 21.9225 36.3669 23.6667 34.2222 23.6667ZM14.7778 31.4444C10.4883 31.4444 7 34.9328 7 39.2222C7 43.5117 10.4883 47 14.7778 47C19.0672 47 22.5556 43.5117 22.5556 39.2222C22.5556 34.9328 19.0672 31.4444 14.7778 31.4444ZM14.7778 43.1111C12.6331 43.1111 10.8889 41.3669 10.8889 39.2222C10.8889 37.0775 12.6331 35.3333 14.7778 35.3333C16.9225 35.3333 18.6667 37.0775 18.6667 39.2222C18.6667 41.3669 16.9225 43.1111 14.7778 43.1111Z" fill="#E82E05"/>
</svg>
