<svg width="21" height="21" viewBox="0 0 21 21" fill="none" xmlns="http://www.w3.org/2000/svg">
<g clip-path="url(#clip0_124_184)">
<path d="M14.5385 0.151839C11.0534 0.151839 8.22805 1.70988 8.22805 3.63461C8.22805 5.55934 11.0542 7.11818 14.5385 7.11818C18.0237 7.11818 20.849 5.55934 20.849 3.63461C20.849 1.70988 18.0229 0.151839 14.5385 0.151839ZM20.849 4.66926C20.8474 6.59399 18.0237 8.15284 14.5385 8.15284C11.063 8.15284 8.2442 6.61095 8.22805 4.69511V6.05769C8.22805 6.87992 8.75466 7.63268 9.61728 8.22876C10.4896 8.46622 11.2666 8.79576 11.9135 9.21253C12.7156 9.41607 13.5976 9.54045 14.5385 9.54045C18.0237 9.54045 20.849 7.98242 20.849 6.05769V4.66926ZM20.849 7.09234C20.849 9.01707 18.0237 10.5759 14.5385 10.5759C14.1145 10.5759 13.7026 10.5444 13.302 10.5C13.6181 10.9257 13.8338 11.4175 13.9328 11.9385C14.1339 11.9498 14.3326 11.9635 14.5385 11.9635C18.0237 11.9635 20.849 10.4055 20.849 8.48076V7.09234ZM6.46162 9.03565C2.97643 9.03565 0.151123 10.5945 0.151123 12.5192C0.151123 14.444 2.97724 16.0028 6.46162 16.0028C9.94682 16.0028 12.7721 14.444 12.7721 12.5192C12.7721 10.5945 9.94601 9.03565 6.46162 9.03565ZM20.849 9.51542C20.8474 11.4401 18.0237 12.999 14.5385 12.999C14.3358 12.999 14.1307 12.9845 13.9328 12.9731C13.9239 13.0337 13.919 13.1145 13.9077 13.1751C13.9481 13.297 13.9829 13.4174 13.9829 13.5547V14.3624C14.1662 14.3713 14.3504 14.3866 14.5385 14.3866C18.0237 14.3866 20.849 12.8286 20.849 10.9038V9.51542ZM20.849 11.9385C20.8474 13.8632 18.0237 15.4221 14.5385 15.4221C14.3358 15.4221 14.1307 15.4075 13.9328 15.3962C13.9239 15.4568 13.919 15.5376 13.9077 15.5981C13.9481 15.7193 13.9829 15.8405 13.9829 15.9778V16.7855C14.1662 16.7943 14.3504 16.8097 14.5385 16.8097C18.0237 16.8097 20.849 15.2516 20.849 13.3269V11.9385ZM12.7721 13.5539C12.7705 15.4786 9.94682 17.0375 6.46162 17.0375C2.98612 17.0375 0.167277 15.4956 0.151123 13.5789V14.9423C0.151123 16.867 2.97562 18.4259 6.46162 18.4259C9.94762 18.4259 12.7721 16.867 12.7721 14.9423V13.5539ZM12.7721 15.977C12.7705 17.9017 9.94682 19.4605 6.46162 19.4605C2.98612 19.4605 0.167277 17.9186 0.151123 16.002V17.3654C0.151123 19.2901 2.97562 20.849 6.46162 20.849C9.94762 20.849 12.7721 19.2901 12.7721 17.3654V15.977Z" fill="white"/>
</g>
<defs>
<clipPath id="clip0_124_184">
<rect width="21" height="21" fill="white"/>
</clipPath>
</defs>
</svg>
