<svg width="35" height="35" viewBox="0 0 35 35" fill="none" xmlns="http://www.w3.org/2000/svg">
<g clip-path="url(#clip0_124_334)">
<path d="M9.72222 14V26.25H25.2778V14C25.2778 12.1435 24.4583 10.3631 22.9997 9.0503C21.5411 7.73754 19.5628 7.00005 17.5 7.00005C15.4372 7.00005 13.4589 7.73754 12.0003 9.0503C10.5417 10.3631 9.72222 12.1435 9.72222 14ZM13.6694 4.07755C13.5808 3.57759 13.6137 3.06627 13.7659 2.57887C13.9181 2.09147 14.186 1.63959 14.5511 1.25441C14.9162 0.869227 15.3697 0.559917 15.8805 0.347817C16.3913 0.135718 16.9472 0.0258789 17.5097 0.0258789C18.0723 0.0258789 18.6281 0.135718 19.1389 0.347817C19.6497 0.559917 20.1033 0.869227 20.4684 1.25441C20.8335 1.63959 21.1013 2.09147 21.2536 2.57887C21.4058 3.06627 21.4387 3.57759 21.35 4.07755C23.636 4.79678 25.6167 6.13842 27.0173 7.91639C28.418 9.69437 29.1691 11.8205 29.1667 14V24.5L35 28V29.75H0V28L5.83333 24.5V14C5.83227 11.8184 6.58628 9.69067 7.9906 7.91245C9.39492 6.13423 11.3798 4.79385 13.6694 4.07755ZM21.3889 31.5C21.3889 32.4283 20.9792 33.3185 20.2499 33.9749C19.5205 34.6313 18.5314 35 17.5 35C16.4686 35 15.4794 34.6313 14.7501 33.9749C14.0208 33.3185 13.6111 32.4283 13.6111 31.5H21.3889Z" fill="#E82E05"/>
</g>
<defs>
<clipPath id="clip0_124_334">
<rect width="35" height="35" fill="white"/>
</clipPath>
</defs>
</svg>
