<svg width="20" height="23" viewBox="0 0 20 23" fill="none" xmlns="http://www.w3.org/2000/svg">
<rect width="20" height="23" transform="matrix(-1 0 0 1 20 0)" fill="white"/>
<path d="M1.42857 9.34375H7.85714V2.875C7.85714 2.08123 8.49687 1.4375 9.28571 1.4375H10.7143C11.5031 1.4375 12.1429 2.08123 12.1429 2.875V9.34375H18.5714C19.3603 9.34375 20 9.98748 20 10.7812V12.2188C20 13.0125 19.3603 13.6562 18.5714 13.6562H12.1429V20.125C12.1429 20.9188 11.5031 21.5625 10.7143 21.5625H9.28571C8.49687 21.5625 7.85714 20.9188 7.85714 20.125V13.6562H1.42857C0.639732 13.6562 0 13.0125 0 12.2188V10.7812C0 9.98748 0.639732 9.34375 1.42857 9.34375Z" fill="#16457C"/>
</svg>
