<svg width="24" height="24" viewBox="0 0 24 24" fill="none" xmlns="http://www.w3.org/2000/svg">
<g id="u:shopping-cart">
<path id="vector" d="M17.44 13.5H17.44H7C6.60218 13.5 6.22064 13.658 5.93934 13.9393C5.65804 14.2206 5.5 14.6022 5.5 15C5.5 15.3978 5.65804 15.7794 5.93934 16.0607C6.22064 16.342 6.60218 16.5 7 16.5H21C21.1326 16.5 21.2598 16.5527 21.3536 16.6464C21.4473 16.7402 21.5 16.8674 21.5 17C21.5 17.1326 21.4473 17.2598 21.3536 17.3536C21.2598 17.4473 21.1326 17.5 21 17.5H20.82H20.1066L20.35 18.1706C20.4871 18.5482 20.5311 18.9533 20.4784 19.3515C20.4257 19.7498 20.2778 20.1294 20.0472 20.4584C19.8167 20.7873 19.5102 21.0559 19.1539 21.2413C18.7975 21.4267 18.4017 21.5235 18 21.5235C17.5983 21.5235 17.2025 21.4267 16.8461 21.2413C16.4898 21.0559 16.1833 20.7873 15.9528 20.4584C15.7222 20.1294 15.5743 19.7498 15.5216 19.3515C15.4689 18.9533 15.5129 18.5482 15.65 18.1706L15.8934 17.5H15.18H12.82H12.1066L12.35 18.1706C12.4871 18.5482 12.5311 18.9533 12.4784 19.3515C12.4257 19.7498 12.2778 20.1294 12.0472 20.4584C11.8167 20.7873 11.5102 21.0559 11.1539 21.2413C10.7975 21.4267 10.4017 21.5235 10 21.5235C9.59829 21.5235 9.20249 21.4267 8.84613 21.2413C8.48976 21.0559 8.18333 20.7873 7.95276 20.4584C7.72221 20.1294 7.57431 19.7498 7.52161 19.3515C7.46891 18.9533 7.51295 18.5482 7.65 18.1706L7.89339 17.5H7.18H7H6.98876L6.97752 17.5005C6.31435 17.5303 5.66648 17.2955 5.17644 16.8477C4.6864 16.3999 4.39434 15.7757 4.36449 15.1125C4.33465 14.4493 4.56948 13.8015 5.01731 13.3114C5.46514 12.8214 6.0893 12.5293 6.75248 12.4995L7.36687 12.4718L7.21439 11.876L5.49222 5.14664L5.43614 4.69798L5.43249 4.66878L5.42544 4.64021C5.34331 4.3074 5.14967 4.01275 4.87675 3.80533C4.60595 3.59953 4.27332 3.49191 3.93345 3.5H3C2.86739 3.5 2.74021 3.44732 2.64645 3.35355C2.55268 3.25979 2.5 3.13261 2.5 3C2.5 2.86739 2.55268 2.74021 2.64645 2.64645C2.74021 2.55268 2.86739 2.5 3 2.5H3.93926C4.45482 2.50159 4.95728 2.66253 5.37782 2.96078C5.79854 3.25916 6.11667 3.68037 6.2886 4.16666L6.40645 4.5H6.76H21H21.0087L21.0175 4.4997C21.0959 4.49695 21.1739 4.51273 21.2451 4.54573C21.3159 4.57851 21.378 4.62737 21.4264 4.6884C21.4726 4.74818 21.5046 4.81766 21.5201 4.8916C21.5357 4.96605 21.5341 5.04307 21.5154 5.1168C21.5154 5.11682 21.5154 5.11685 21.5154 5.11687C21.5154 5.11692 21.5154 5.11697 21.5154 5.11702L19.8654 11.6068L19.865 11.6083C19.7294 12.1488 19.4172 12.6285 18.9778 12.9712C18.5385 13.3139 17.9972 13.5 17.44 13.5ZM20.2051 6.12127L20.3604 5.5H19.72H7.28H6.63961L6.79493 6.12127L8.29493 12.1213L8.38961 12.5H8.78H17.4034C17.7433 12.5081 18.076 12.4005 18.3467 12.1947C18.6195 11.9874 18.8131 11.693 18.8953 11.3604C18.8953 11.3602 18.8954 11.36 18.8954 11.3598L20.2051 6.12127ZM9.16664 20.2472C9.41332 20.412 9.70333 20.5 10 20.5C10.3978 20.5 10.7794 20.342 11.0607 20.0607C11.342 19.7794 11.5 19.3978 11.5 19C11.5 18.7033 11.412 18.4133 11.2472 18.1666C11.0824 17.92 10.8481 17.7277 10.574 17.6142C10.2999 17.5006 9.99834 17.4709 9.70736 17.5288C9.41639 17.5867 9.14912 17.7296 8.93934 17.9393C8.72956 18.1491 8.5867 18.4164 8.52882 18.7074C8.47094 18.9983 8.50065 19.2999 8.61418 19.574C8.72771 19.8481 8.91997 20.0824 9.16664 20.2472ZM17.1666 20.2472C17.4133 20.412 17.7033 20.5 18 20.5C18.3978 20.5 18.7794 20.342 19.0607 20.0607C19.342 19.7794 19.5 19.3978 19.5 19C19.5 18.7033 19.412 18.4133 19.2472 18.1666C19.0824 17.92 18.8481 17.7277 18.574 17.6142C18.2999 17.5006 17.9983 17.4709 17.7074 17.5288C17.4164 17.5867 17.1491 17.7296 16.9393 17.9393C16.7296 18.1491 16.5867 18.4164 16.5288 18.7074C16.4709 18.9983 16.5006 19.2999 16.6142 19.574C16.7277 19.8481 16.92 20.0824 17.1666 20.2472Z" fill="#6B7280" stroke="#6B7280"/>
</g>
</svg>
